<svg width="24" height="18" viewBox="0 0 24 18" fill="none" xmlns="http://www.w3.org/2000/svg">
<path d="M1.29485 9.81506C1.14268 9.56862 1.06659 9.44539 1.024 9.25533C0.992002 9.11257 0.992002 8.88743 1.024 8.74467C1.06659 8.55461 1.14268 8.43138 1.29485 8.18494C2.5524 6.14839 6.29559 1 12 1C17.7044 1 21.4476 6.14839 22.7051 8.18494C22.8573 8.43138 22.9334 8.55461 22.976 8.74467C23.008 8.88743 23.008 9.11257 22.976 9.25533C22.9334 9.44539 22.8573 9.56862 22.7051 9.81506C21.4476 11.8516 17.7044 17 12 17C6.29559 17 2.5524 11.8516 1.29485 9.81506Z" stroke="#5A5A5A" stroke-width="2" stroke-linecap="round" stroke-linejoin="round"/>
<path d="M12 12.4286C13.8514 12.4286 15.3522 10.8935 15.3522 9C15.3522 7.10645 13.8514 5.57143 12 5.57143C10.1486 5.57143 8.64776 7.10645 8.64776 9C8.64776 10.8935 10.1486 12.4286 12 12.4286Z" stroke="#5A5A5A" stroke-width="2" stroke-linecap="round" stroke-linejoin="round"/>
</svg>
