<svg width="40" height="40" viewBox="0 0 40 40" fill="none" xmlns="http://www.w3.org/2000/svg">
<path d="M17.343 0.0495514C7.77957 0.0495514 0 7.82912 0 17.3925C0 26.956 7.77957 34.7355 17.343 34.7355C20.2665 34.7355 23.1405 34.0418 25.5685 32.7039C25.763 32.938 25.9786 33.1536 26.2127 33.3481L31.1678 38.3032C31.6254 38.8181 32.1833 39.234 32.8074 39.5254C33.4315 39.8168 34.1086 39.9775 34.797 39.9978C35.4855 40.0181 36.1709 39.8974 36.811 39.6432C37.4512 39.389 38.0326 39.0067 38.5196 38.5196C39.0067 38.0326 39.389 37.4512 39.6432 36.811C39.8974 36.1709 40.0181 35.4855 39.9978 34.797C39.9775 34.1086 39.8168 33.4315 39.5254 32.8074C39.234 32.1833 38.8181 31.6254 38.3032 31.1678L33.3481 26.2127C33.1067 25.9712 32.841 25.7554 32.5553 25.5685C33.8932 23.1405 34.7355 20.3161 34.7355 17.343C34.7355 7.77957 26.956 0 17.3925 0L17.343 0.0495514ZM17.343 5.00469C24.2306 5.00469 29.7308 10.5049 29.7308 17.3925C29.7308 20.6629 28.5416 23.6856 26.4604 25.9154C26.4109 25.9649 26.3613 26.0145 26.3118 26.064C26.0777 26.2585 25.8621 26.4742 25.6676 26.7082C23.4874 28.6903 20.5143 29.8299 17.2934 29.8299C10.4058 29.8299 4.90559 24.3297 4.90559 17.4421C4.90559 10.5544 10.4058 5.05424 17.2934 5.05424L17.343 5.00469Z" fill="#5A5A5A"/>
</svg>
