<svg width="47" height="47" viewBox="0 0 47 47" fill="none" xmlns="http://www.w3.org/2000/svg">
<path d="M39.1666 21.5417C39.1666 25.9832 36.9282 30.0056 34.1415 33.2917C31.1453 36.8245 27.5184 39.5035 25.3682 40.937C24.816 41.3076 24.1659 41.5055 23.5009 41.5055C22.8358 41.5055 22.1858 41.3076 21.6336 40.937C19.4795 39.5035 15.8526 36.8245 12.8583 33.2917C10.0736 30.0056 7.83325 25.9832 7.83325 21.5417C7.83325 17.3866 9.48384 13.4017 12.4219 10.4637C15.36 7.52559 19.3449 5.875 23.4999 5.875C27.655 5.875 31.6399 7.52559 34.5779 10.4637C37.516 13.4017 39.1666 17.3866 39.1666 21.5417Z" stroke="#5A5A5A" stroke-width="2" stroke-linecap="round" stroke-linejoin="round"/>
<path d="M29.375 21.5417C29.375 23.0999 28.756 24.5942 27.6543 25.696C26.5525 26.7978 25.0581 27.4167 23.5 27.4167C21.9419 27.4167 20.4475 26.7978 19.3457 25.696C18.244 24.5942 17.625 23.0999 17.625 21.5417C17.625 19.9836 18.244 18.4893 19.3457 17.3875C20.4475 16.2857 21.9419 15.6667 23.5 15.6667C25.0581 15.6667 26.5525 16.2857 27.6543 17.3875C28.756 18.4893 29.375 19.9836 29.375 21.5417Z" stroke="#5A5A5A" stroke-width="2" stroke-linecap="round" stroke-linejoin="round"/>
</svg>
