<svg width="23" height="23" viewBox="0 0 23 23" fill="#5A5A5A" xmlns="http://www.w3.org/2000/svg">
<path d="M4.83832 0.707107C4.44779 0.316582 3.81463 0.316582 3.4241 0.707107L0.707107 3.4241C0.316583 3.81463 0.316582 4.44779 0.707107 4.83832L2.10955 6.24076L6.6295 10.8369C7.01446 11.2283 7.01184 11.857 6.62362 12.2452L2.10955 16.7592L0.72979 18.0815C0.328013 18.4665 0.317853 19.1055 0.707184 19.5031L3.42418 22.2779C3.81345 22.6755 4.45237 22.6788 4.8458 22.2854L6.24076 20.8904L10.8309 16.3003C11.2237 15.9075 11.8615 15.9101 12.251 16.3062L16.7592 20.8904L18.0741 22.2625C18.462 22.6672 19.1068 22.6741 19.5032 22.2777L22.2777 19.5032C22.6741 19.1068 22.6672 18.462 22.2625 18.0741L20.8904 16.7592L16.3062 12.251C15.9101 11.8615 15.9075 11.2237 16.3003 10.8309L20.8904 6.24076L22.2854 4.8458C22.6788 4.45237 22.6755 3.81345 22.2779 3.42418L19.5031 0.707185C19.1055 0.317853 18.4665 0.328013 18.0815 0.729789L16.7592 2.10955L12.2452 6.62362C11.857 7.01184 11.2283 7.01446 10.8369 6.6295L6.24076 2.10955L4.83832 0.707107Z" fill="#5A5A5A"/>
</svg>
