<svg width="37" height="37" viewBox="0 0 37 37" fill="none" xmlns="http://www.w3.org/2000/svg">
<path d="M35.9761 12.7738L35.9174 12.8326L27.9626 20.7873C27.4685 21.2812 27.1156 21.8983 26.9403 22.5746C26.765 23.2509 26.7739 23.9618 26.9658 24.6335L30.1442 35.7568C30.1522 35.7846 30.1516 35.8141 30.1423 35.8414C30.133 35.8688 30.1155 35.8926 30.0922 35.9097C30.0689 35.9268 30.0409 35.9363 30.0121 35.937C29.9832 35.9377 29.9548 35.9295 29.9307 35.9135L29.8955 35.888L20.6717 29.7389C20.0285 29.3103 19.2729 29.0816 18.5 29.0816C17.727 29.0816 16.9714 29.3103 16.3282 29.7389L7.08482 35.9017C7.05983 35.9193 7.02996 35.9287 6.99939 35.9286C6.96881 35.9284 6.93905 35.9187 6.91426 35.9008C6.88946 35.8829 6.87087 35.8577 6.86108 35.8287C6.85128 35.7998 6.85077 35.7685 6.85962 35.7392L6.87528 35.6863L10.0341 24.6335C10.2258 23.9616 10.2343 23.2506 10.0587 22.5743C9.88307 21.898 9.52974 21.281 9.03532 20.7873L1.14128 12.8894L1.06295 12.811C1.04796 12.7956 1.03785 12.7761 1.03387 12.7549C1.02989 12.7338 1.03223 12.7119 1.04058 12.6921C1.04893 12.6723 1.06293 12.6553 1.08084 12.6434C1.09874 12.6315 1.11976 12.6251 1.14128 12.625H10.9956C11.7686 12.625 12.5244 12.3964 13.1677 11.9677C13.811 11.5391 14.3131 10.9297 14.6107 10.2162L18.3785 1.17069C18.3885 1.14615 18.4056 1.12514 18.4275 1.11034C18.4495 1.09555 18.4754 1.08765 18.5019 1.08765C18.5284 1.08765 18.5543 1.09555 18.5763 1.11034C18.5982 1.12514 18.6153 1.14615 18.6253 1.17069L22.3931 10.2143C22.6903 10.9278 23.192 11.5374 23.8349 11.9664C24.4778 12.3953 25.2333 12.6245 26.0062 12.625H35.9154C35.9937 12.625 36.0329 12.719 35.9761 12.7738Z" stroke="#5A5A5A" stroke-width="2" stroke-linecap="round" stroke-linejoin="round"/>
</svg>
